<svg width="1440" height="458" viewBox="0 0 1440 458" fill="none" xmlns="http://www.w3.org/2000/svg">
<path d="M916.52 409.6C813.736 409.6 732.465 395.5 653.584 381.8C575.386 368.2 494.798 354.2 393.38 354.2C291.962 354.2 211.374 368.2 133.176 381.8C91.1745 389.1 47.8072 396.6 1.70805 401.9L0.000671387 400.5C45.7583 395.2 88.7842 387.8 130.444 380.5C208.983 366.8 290.596 352.7 393.38 352.7C496.164 352.7 577.435 366.8 656.316 380.5C734.513 394.1 815.101 408.1 916.52 408.1C1017.94 408.1 1098.87 394.1 1176.72 380.5C1255.26 366.8 1336.88 352.7 1439.66 352.7V354.2C1338.24 354.2 1257.31 368.2 1179.46 381.8C1100.57 395.5 1019.3 409.6 916.52 409.6Z" fill="#2F80ED" fill-opacity="0.12"/>
<path d="M916.52 402.7C813.736 402.7 732.465 388.6 653.584 374.9C575.386 361.3 494.798 347.3 393.38 347.3C291.962 347.3 211.374 361.3 133.176 374.9C91.1745 382.2 47.8072 389.7 1.70805 395L0.000671387 393.6C45.7583 388.3 88.7842 380.9 130.444 373.6C208.983 359.9 290.596 345.8 393.38 345.8C496.164 345.8 577.435 359.9 656.316 373.6C734.513 387.2 815.101 401.2 916.52 401.2C1017.94 401.2 1098.87 387.2 1176.72 373.6C1255.26 359.9 1336.88 345.8 1439.66 345.8V347.3C1338.24 347.3 1257.31 361.3 1179.46 374.9C1100.57 388.5 1019.3 402.7 916.52 402.7Z" fill="#2F80ED" fill-opacity="0.12"/>
<path d="M916.518 395.8C813.734 395.8 732.463 381.7 653.582 368C575.385 354.4 494.797 340.4 393.379 340.4C291.96 340.4 211.372 354.4 133.175 368C91.1732 375.3 48.1473 382.8 2.0482 388.1L0.34082 386.7C46.0985 381.4 89.1243 374 130.784 366.7C209.324 353 290.936 338.9 393.72 338.9C496.504 338.9 577.775 353 656.656 366.7C734.854 380.3 815.442 394.3 916.86 394.3C1018.28 394.3 1099.21 380.3 1177.06 366.7C1255.6 353 1337.22 338.9 1440 338.9V340.4C1338.58 340.4 1257.65 354.4 1179.8 368C1100.57 381.7 1019.3 395.8 916.518 395.8Z" fill="#2F80ED" fill-opacity="0.12"/>
<path d="M916.52 388.9C813.736 388.9 732.465 374.8 653.584 361.1C575.386 347.5 494.798 333.5 393.38 333.5C291.962 333.5 211.374 347.5 133.176 361.1C91.1745 368.4 47.8072 375.9 1.70805 381.2L0.000671387 379.8C45.7583 374.5 88.7842 367.1 130.444 359.8C208.983 346.1 290.596 332 393.38 332C496.164 332 577.435 346.1 656.316 359.8C734.513 373.4 815.101 387.4 916.52 387.4C1017.94 387.4 1098.87 373.4 1176.72 359.8C1255.26 346.1 1336.88 332 1439.66 332V333.5C1338.24 333.5 1257.31 347.5 1179.46 361.1C1100.57 374.8 1019.3 388.9 916.52 388.9Z" fill="#2F80ED" fill-opacity="0.12"/>
<path d="M916.52 382C813.736 382 732.465 367.9 653.584 354.2C575.386 340.6 494.798 326.6 393.38 326.6C291.962 326.6 211.374 340.6 133.176 354.2C91.1745 361.5 47.8072 369 1.70805 374.3L0.000671387 372.9C45.7583 367.6 88.7842 360.2 130.444 352.9C208.983 339.2 290.596 325.1 393.38 325.1C496.164 325.1 577.435 339.2 656.316 352.9C734.513 366.5 815.101 380.5 916.52 380.5C1017.94 380.5 1098.87 366.5 1176.72 352.9C1255.26 339.2 1336.88 325.1 1439.66 325.1V326.6C1338.24 326.6 1257.31 340.6 1179.46 354.2C1100.57 367.9 1019.3 382 916.52 382Z" fill="#2F80ED" fill-opacity="0.12"/>
<path d="M916.518 375.1C813.734 375.1 732.463 361 653.582 347.3C575.385 333.7 494.797 319.7 393.379 319.7C291.96 319.7 211.031 333.7 133.175 347.3C91.1732 354.6 48.1473 362.1 2.0482 367.4L0.34082 366C46.0985 360.7 89.1243 353.3 130.784 346C209.324 332.3 290.936 318.2 393.72 318.2C496.504 318.2 577.775 332.3 656.656 346C734.854 359.6 815.442 373.6 916.86 373.6C1018.28 373.6 1099.21 359.6 1177.06 346C1255.6 332.3 1337.22 318.2 1440 318.2V319.7C1338.58 319.7 1257.65 333.7 1179.8 347.3C1100.57 361 1019.3 375.1 916.518 375.1Z" fill="#2F80ED" fill-opacity="0.12"/>
<path d="M916.518 368.2C813.734 368.2 732.463 354.1 653.582 340.4C575.385 326.8 494.797 312.8 393.379 312.8C291.96 312.8 211.031 326.8 133.175 340.4C91.1732 347.7 48.1473 355.2 2.0482 360.5L0.34082 359.1C46.0985 353.8 89.1243 346.4 130.784 339.1C209.324 325.4 290.936 311.3 393.72 311.3C496.504 311.3 577.775 325.4 656.656 339.1C734.854 352.7 815.442 366.7 916.86 366.7C1018.28 366.7 1099.21 352.7 1177.06 339.1C1255.6 325.4 1337.22 311.3 1440 311.3V312.8C1338.58 312.8 1257.65 326.8 1179.8 340.4C1100.57 354 1019.3 368.2 916.518 368.2Z" fill="#2F80ED" fill-opacity="0.12"/>
<path d="M916.518 361.3C813.734 361.3 732.463 347.2 653.582 333.5C575.385 320 494.797 306 393.379 306C291.96 306 211.031 320 133.175 333.6C91.1732 340.9 48.1473 348.4 2.0482 353.7L0.34082 352.3C46.0985 347 89.1243 339.6 130.784 332.3C209.324 318.6 290.936 304.5 393.72 304.5C496.504 304.5 577.775 318.6 656.656 332.3C734.854 345.9 815.442 359.9 916.86 359.9C1018.28 359.9 1099.21 345.9 1177.06 332.3C1255.6 318.6 1337.22 304.5 1440 304.5V306C1338.58 306 1257.65 320 1179.8 333.6C1100.57 347.2 1019.3 361.3 916.518 361.3Z" fill="#2F80ED" fill-opacity="0.12"/>
<path d="M916.518 354.5C813.734 354.5 732.463 340.4 653.582 326.7C575.385 313.1 494.797 299.1 393.379 299.1C291.96 299.1 211.372 313.1 133.175 326.7C91.1732 334 48.1473 341.5 2.0482 346.8L0.34082 345.4C46.0985 340.1 89.1243 332.7 130.784 325.4C209.324 311.7 290.936 297.6 393.72 297.6C496.504 297.6 577.775 311.7 656.656 325.4C734.854 339 815.442 353 916.86 353C1018.28 353 1099.21 339 1177.06 325.4C1255.6 311.7 1337.22 297.6 1440 297.6V299.1C1338.58 299.1 1257.65 313.1 1179.8 326.7C1100.57 340.4 1019.3 354.5 916.518 354.5Z" fill="#2F80ED" fill-opacity="0.12"/>
<path d="M916.518 347.6C813.734 347.6 732.463 333.5 653.582 319.8C575.385 306.2 494.797 292.2 393.379 292.2C291.96 292.2 211.031 306.2 133.175 319.8C91.1732 327.1 48.1473 334.6 2.0482 339.9L0.34082 338.5C46.0985 333.2 89.1243 325.8 130.784 318.5C209.324 304.8 290.936 290.7 393.72 290.7C496.504 290.7 577.775 304.8 656.656 318.5C734.854 332.1 815.442 346.1 916.86 346.1C1018.28 346.1 1099.21 332.1 1177.06 318.5C1255.6 304.8 1337.22 290.7 1440 290.7V292.2C1338.58 292.2 1257.65 306.2 1179.8 319.8C1100.57 333.5 1019.3 347.6 916.518 347.6Z" fill="#2F80ED" fill-opacity="0.12"/>
<path d="M916.518 340.7C813.734 340.7 732.463 326.6 653.582 312.9C575.385 299.3 494.797 285.3 393.379 285.3C291.96 285.3 211.372 299.3 133.175 312.9C91.1732 320.2 48.1473 327.7 2.0482 333L0.34082 331.6C46.0985 326.3 89.1243 318.9 130.784 311.6C209.324 297.9 290.936 283.8 393.72 283.8C496.504 283.8 577.775 297.9 656.656 311.6C734.854 325.2 815.442 339.2 916.86 339.2C1018.28 339.2 1099.21 325.2 1177.06 311.6C1255.6 297.9 1337.22 283.8 1440 283.8V285.3C1338.58 285.3 1257.65 299.3 1179.8 312.9C1100.57 326.6 1019.3 340.7 916.518 340.7Z" fill="#2F80ED" fill-opacity="0.12"/>
<path d="M916.52 333.8C813.736 333.8 732.465 319.7 653.584 306C575.386 292.4 494.798 278.4 393.38 278.4C291.962 278.4 211.032 292.4 133.176 306C91.1745 313.3 47.8072 320.8 1.70805 326.1L0.000671387 324.7C45.7583 319.4 88.7842 312 130.444 304.7C208.983 291 290.596 276.9 393.38 276.9C496.164 276.9 577.435 291 656.316 304.7C734.513 318.3 815.101 332.3 916.52 332.3C1017.94 332.3 1098.87 318.3 1176.72 304.7C1255.26 291 1336.88 276.9 1439.66 276.9V278.4C1338.24 278.4 1257.31 292.4 1179.46 306C1100.57 319.7 1019.3 333.8 916.52 333.8Z" fill="#2F80ED" fill-opacity="0.12"/>
<path d="M916.52 326.9C813.736 326.9 732.465 312.8 653.584 299.1C575.386 285.5 494.798 271.5 393.38 271.5C291.962 271.5 211.374 285.5 133.176 299.1C91.1745 306.4 47.8072 313.9 1.70805 319.2L0.000671387 317.8C45.7583 312.5 88.7842 305.1 130.444 297.8C208.983 284.1 290.596 270 393.38 270C496.164 270 577.435 284.1 656.316 297.8C734.513 311.4 815.101 325.4 916.52 325.4C1017.94 325.4 1098.87 311.4 1176.72 297.8C1255.26 284.1 1336.88 270 1439.66 270V271.5C1338.24 271.5 1257.31 285.5 1179.46 299.1C1100.57 312.8 1019.3 326.9 916.52 326.9Z" fill="#2F80ED" fill-opacity="0.12"/>
<path d="M916.52 500.6C813.736 500.6 732.465 486.5 653.584 472.8C575.386 459.2 494.798 445.2 393.38 445.2C291.962 445.2 211.374 459.2 133.176 472.8C91.1745 480.1 47.8072 487.6 1.70805 492.9L0.000671387 491.5C45.7583 486.2 88.7842 478.8 130.444 471.5C208.983 457.8 290.596 443.7 393.38 443.7C496.164 443.7 577.435 457.8 656.316 471.5C734.513 485.1 815.101 499.1 916.52 499.1C1017.94 499.1 1098.87 485.1 1176.72 471.5C1255.26 457.8 1336.88 443.7 1439.66 443.7V445.2C1338.24 445.2 1257.31 459.2 1179.46 472.8C1100.57 486.5 1019.3 500.6 916.52 500.6Z" fill="#2F80ED" fill-opacity="0.12"/>
<path d="M916.52 493.7C813.736 493.7 732.465 479.6 653.584 465.9C575.386 452.3 494.798 438.3 393.38 438.3C291.962 438.3 211.374 452.3 133.176 465.9C91.1745 473.2 47.8072 480.7 1.70805 486L0.000671387 484.6C45.7583 479.3 88.7842 471.9 130.444 464.6C208.983 450.9 290.596 436.8 393.38 436.8C496.164 436.8 577.435 450.9 656.316 464.6C734.513 478.2 815.101 492.2 916.52 492.2C1017.94 492.2 1098.87 478.2 1176.72 464.6C1255.26 450.9 1336.88 436.8 1439.66 436.8V438.3C1338.24 438.3 1257.31 452.3 1179.46 465.9C1100.57 479.5 1019.3 493.7 916.52 493.7Z" fill="#2F80ED" fill-opacity="0.12"/>
<path d="M916.518 486.8C813.734 486.8 732.463 472.7 653.582 459C575.385 445.4 494.797 431.4 393.379 431.4C291.96 431.4 211.372 445.4 133.175 459C91.1732 466.3 48.1473 473.8 2.0482 479.1L0.34082 477.7C46.0985 472.4 89.1243 465 130.784 457.7C209.324 444 290.936 429.9 393.72 429.9C496.504 429.9 577.775 444 656.656 457.7C734.854 471.3 815.442 485.3 916.86 485.3C1018.28 485.3 1099.21 471.3 1177.06 457.7C1255.6 444 1337.22 429.9 1440 429.9V431.4C1338.58 431.4 1257.65 445.4 1179.8 459C1100.57 472.7 1019.3 486.8 916.518 486.8Z" fill="#2F80ED" fill-opacity="0.12"/>
<path d="M916.52 479.9C813.736 479.9 732.465 465.8 653.584 452.1C575.386 438.5 494.798 424.5 393.38 424.5C291.962 424.5 211.374 438.5 133.176 452.1C91.1745 459.4 47.8072 466.9 1.70805 472.2L0.000671387 470.8C45.7583 465.5 88.7842 458.1 130.444 450.8C208.983 437.1 290.596 423 393.38 423C496.164 423 577.435 437.1 656.316 450.8C734.513 464.4 815.101 478.4 916.52 478.4C1017.94 478.4 1098.87 464.4 1176.72 450.8C1255.26 437.1 1336.88 423 1439.66 423V424.5C1338.24 424.5 1257.31 438.5 1179.46 452.1C1100.57 465.8 1019.3 479.9 916.52 479.9Z" fill="#2F80ED" fill-opacity="0.12"/>
<path d="M916.52 473C813.736 473 732.465 458.9 653.584 445.2C575.386 431.6 494.798 417.6 393.38 417.6C291.962 417.6 211.374 431.6 133.176 445.2C91.1745 452.5 47.8072 460 1.70805 465.3L0.000671387 463.9C45.7583 458.6 88.7842 451.2 130.444 443.9C208.983 430.2 290.596 416.1 393.38 416.1C496.164 416.1 577.435 430.2 656.316 443.9C734.513 457.5 815.101 471.5 916.52 471.5C1017.94 471.5 1098.87 457.5 1176.72 443.9C1255.26 430.2 1336.88 416.1 1439.66 416.1V417.6C1338.24 417.6 1257.31 431.6 1179.46 445.2C1100.57 458.9 1019.3 473 916.52 473Z" fill="#2F80ED" fill-opacity="0.12"/>
<path d="M916.518 466.1C813.734 466.1 732.463 452 653.582 438.3C575.385 424.7 494.797 410.7 393.379 410.7C291.96 410.7 211.031 424.7 133.175 438.3C91.1732 445.6 48.1473 453.1 2.0482 458.4L0.34082 457C46.0985 451.7 89.1243 444.3 130.784 437C209.324 423.3 290.936 409.2 393.72 409.2C496.504 409.2 577.775 423.3 656.656 437C734.854 450.6 815.442 464.6 916.86 464.6C1018.28 464.6 1099.21 450.6 1177.06 437C1255.6 423.3 1337.22 409.2 1440 409.2V410.7C1338.58 410.7 1257.65 424.7 1179.8 438.3C1100.57 452 1019.3 466.1 916.518 466.1Z" fill="#2F80ED" fill-opacity="0.12"/>
<path d="M916.518 459.2C813.734 459.2 732.463 445.1 653.582 431.4C575.385 417.8 494.797 403.8 393.379 403.8C291.96 403.8 211.031 417.8 133.175 431.4C91.1732 438.7 48.1473 446.2 2.0482 451.5L0.34082 450.1C46.0985 444.8 89.1243 437.4 130.784 430.1C209.324 416.4 290.936 402.3 393.72 402.3C496.504 402.3 577.775 416.4 656.656 430.1C734.854 443.7 815.442 457.7 916.86 457.7C1018.28 457.7 1099.21 443.7 1177.06 430.1C1255.6 416.4 1337.22 402.3 1440 402.3V403.8C1338.58 403.8 1257.65 417.8 1179.8 431.4C1100.57 445 1019.3 459.2 916.518 459.2Z" fill="#2F80ED" fill-opacity="0.12"/>
<path d="M916.518 452.3C813.734 452.3 732.463 438.2 653.582 424.5C575.385 411 494.797 397 393.379 397C291.96 397 211.031 411 133.175 424.6C91.1732 431.9 48.1473 439.4 2.0482 444.7L0.34082 443.3C46.0985 438 89.1243 430.6 130.784 423.3C209.324 409.6 290.936 395.5 393.72 395.5C496.504 395.5 577.775 409.6 656.656 423.3C734.854 436.9 815.442 450.9 916.86 450.9C1018.28 450.9 1099.21 436.9 1177.06 423.3C1255.6 409.6 1337.22 395.5 1440 395.5V397C1338.58 397 1257.65 411 1179.8 424.6C1100.57 438.2 1019.3 452.3 916.518 452.3Z" fill="#2F80ED" fill-opacity="0.12"/>
<path d="M916.518 445.5C813.734 445.5 732.463 431.4 653.582 417.7C575.385 404.1 494.797 390.1 393.379 390.1C291.96 390.1 211.372 404.1 133.175 417.7C91.1732 425 48.1473 432.5 2.0482 437.8L0.34082 436.4C46.0985 431.1 89.1243 423.7 130.784 416.4C209.324 402.7 290.936 388.6 393.72 388.6C496.504 388.6 577.775 402.7 656.656 416.4C734.854 430 815.442 444 916.86 444C1018.28 444 1099.21 430 1177.06 416.4C1255.6 402.7 1337.22 388.6 1440 388.6V390.1C1338.58 390.1 1257.65 404.1 1179.8 417.7C1100.57 431.4 1019.3 445.5 916.518 445.5Z" fill="#2F80ED" fill-opacity="0.12"/>
<path d="M916.518 438.6C813.734 438.6 732.463 424.5 653.582 410.8C575.385 397.2 494.797 383.2 393.379 383.2C291.96 383.2 211.031 397.2 133.175 410.8C91.1732 418.1 48.1473 425.6 2.0482 430.9L0.34082 429.5C46.0985 424.2 89.1243 416.8 130.784 409.5C209.324 395.8 290.936 381.7 393.72 381.7C496.504 381.7 577.775 395.8 656.656 409.5C734.854 423.1 815.442 437.1 916.86 437.1C1018.28 437.1 1099.21 423.1 1177.06 409.5C1255.6 395.8 1337.22 381.7 1440 381.7V383.2C1338.58 383.2 1257.65 397.2 1179.8 410.8C1100.57 424.5 1019.3 438.6 916.518 438.6Z" fill="#2F80ED" fill-opacity="0.12"/>
<path d="M916.518 431.7C813.734 431.7 732.463 417.6 653.582 403.9C575.385 390.3 494.797 376.3 393.379 376.3C291.96 376.3 211.372 390.3 133.175 403.9C91.1732 411.2 48.1473 418.7 2.0482 424L0.34082 422.6C46.0985 417.3 89.1243 409.9 130.784 402.6C209.324 388.9 290.936 374.8 393.72 374.8C496.504 374.8 577.775 388.9 656.656 402.6C734.854 416.2 815.442 430.2 916.86 430.2C1018.28 430.2 1099.21 416.2 1177.06 402.6C1255.6 388.9 1337.22 374.8 1440 374.8V376.3C1338.58 376.3 1257.65 390.3 1179.8 403.9C1100.57 417.6 1019.3 431.7 916.518 431.7Z" fill="#2F80ED" fill-opacity="0.12"/>
<path d="M916.52 424.8C813.736 424.8 732.465 410.7 653.584 397C575.386 383.4 494.798 369.4 393.38 369.4C291.962 369.4 211.032 383.4 133.176 397C91.1745 404.3 47.8072 411.8 1.70805 417.1L0.000671387 415.7C45.7583 410.4 88.7842 403 130.444 395.7C208.983 382 290.596 367.9 393.38 367.9C496.164 367.9 577.435 382 656.316 395.7C734.513 409.3 815.101 423.3 916.52 423.3C1017.94 423.3 1098.87 409.3 1176.72 395.7C1255.26 382 1336.88 367.9 1439.66 367.9V369.4C1338.24 369.4 1257.31 383.4 1179.46 397C1100.57 410.7 1019.3 424.8 916.52 424.8Z" fill="#2F80ED" fill-opacity="0.12"/>
<path d="M916.52 417.9C813.736 417.9 732.465 403.8 653.584 390.1C575.386 376.5 494.798 362.5 393.38 362.5C291.962 362.5 211.374 376.5 133.176 390.1C91.1745 397.4 47.8072 404.9 1.70805 410.2L0.000671387 408.8C45.7583 403.5 88.7842 396.1 130.444 388.8C208.983 375.1 290.596 361 393.38 361C496.164 361 577.435 375.1 656.316 388.8C734.513 402.4 815.101 416.4 916.52 416.4C1017.94 416.4 1098.87 402.4 1176.72 388.8C1255.26 375.1 1336.88 361 1439.66 361V362.5C1338.24 362.5 1257.31 376.5 1179.46 390.1C1100.57 403.8 1019.3 417.9 916.52 417.9Z" fill="#2F80ED" fill-opacity="0.12"/>
<path d="M916.52 514.8C813.736 514.8 732.465 500.7 653.584 487C575.386 473.4 494.798 459.4 393.38 459.4C291.962 459.4 211.032 473.4 133.176 487C91.1745 494.3 47.8072 501.8 1.70805 507.1L0.000671387 505.7C45.7583 500.4 88.7842 493 130.444 485.7C208.983 472 290.596 457.9 393.38 457.9C496.164 457.9 577.435 472 656.316 485.7C734.513 499.3 815.101 513.3 916.52 513.3C1017.94 513.3 1098.87 499.3 1176.72 485.7C1255.26 472 1336.88 457.9 1439.66 457.9V459.4C1338.24 459.4 1257.31 473.4 1179.46 487C1100.57 500.7 1019.3 514.8 916.52 514.8Z" fill="#2F80ED" fill-opacity="0.12"/>
<path d="M916.52 507.9C813.736 507.9 732.465 493.8 653.584 480.1C575.386 466.5 494.798 452.5 393.38 452.5C291.962 452.5 211.374 466.5 133.176 480.1C91.1745 487.4 47.8072 494.9 1.70805 500.2L0.000671387 498.8C45.7583 493.5 88.7842 486.1 130.444 478.8C208.983 465.1 290.596 451 393.38 451C496.164 451 577.435 465.1 656.316 478.8C734.513 492.4 815.101 506.4 916.52 506.4C1017.94 506.4 1098.87 492.4 1176.72 478.8C1255.26 465.1 1336.88 451 1439.66 451V452.5C1338.24 452.5 1257.31 466.5 1179.46 480.1C1100.57 493.8 1019.3 507.9 916.52 507.9Z" fill="#2F80ED" fill-opacity="0.12"/>
<path d="M916.52 139.6C813.736 139.6 732.465 125.5 653.584 111.8C575.386 98.1999 494.798 84.2 393.38 84.2C291.962 84.2 211.374 98.1999 133.176 111.8C91.1745 119.1 47.8072 126.6 1.70805 131.9L0.000671387 130.5C45.7583 125.2 88.7842 117.8 130.444 110.5C208.983 96.8 290.596 82.7 393.38 82.7C496.164 82.7 577.435 96.8 656.316 110.5C734.513 124.1 815.101 138.1 916.52 138.1C1017.94 138.1 1098.87 124.1 1176.72 110.5C1255.26 96.8 1336.88 82.7 1439.66 82.7V84.2C1338.24 84.2 1257.31 98.1999 1179.46 111.8C1100.57 125.5 1019.3 139.6 916.52 139.6Z" fill="#2F80ED" fill-opacity="0.12"/>
<path d="M916.52 132.7C813.736 132.7 732.465 118.6 653.584 104.9C575.386 91.3 494.798 77.3 393.38 77.3C291.962 77.3 211.374 91.3 133.176 104.9C91.1745 112.2 47.8072 119.7 1.70805 125L0.000671387 123.6C45.7583 118.3 88.7842 110.9 130.444 103.6C208.983 89.9 290.596 75.8 393.38 75.8C496.164 75.8 577.435 89.9 656.316 103.6C734.513 117.2 815.101 131.2 916.52 131.2C1017.94 131.2 1098.87 117.2 1176.72 103.6C1255.26 89.9 1336.88 75.8 1439.66 75.8V77.3C1338.24 77.3 1257.31 91.3 1179.46 104.9C1100.57 118.5 1019.3 132.7 916.52 132.7Z" fill="#2F80ED" fill-opacity="0.12"/>
<path d="M916.518 125.8C813.734 125.8 732.463 111.7 653.582 97.9999C575.385 84.3999 494.797 70.3999 393.379 70.3999C291.96 70.3999 211.372 84.3999 133.175 97.9999C91.1732 105.3 48.1473 112.8 2.0482 118.1L0.34082 116.7C46.0985 111.4 89.1243 104 130.784 96.6999C209.324 82.9999 290.936 68.8999 393.72 68.8999C496.504 68.8999 577.775 82.9999 656.656 96.6999C734.854 110.3 815.442 124.3 916.86 124.3C1018.28 124.3 1099.21 110.3 1177.06 96.6999C1255.6 82.9999 1337.22 68.8999 1440 68.8999V70.3999C1338.58 70.3999 1257.65 84.3999 1179.8 97.9999C1100.57 111.7 1019.3 125.8 916.518 125.8Z" fill="#2F80ED" fill-opacity="0.12"/>
<path d="M916.52 118.9C813.736 118.9 732.465 104.8 653.584 91.1C575.386 77.5 494.798 63.5 393.38 63.5C291.962 63.5 211.374 77.5 133.176 91.1C91.1745 98.4 47.8072 105.9 1.70805 111.2L0.000671387 109.8C45.7583 104.5 88.7842 97.1 130.444 89.8C208.983 76.1 290.596 62 393.38 62C496.164 62 577.435 76.1 656.316 89.8C734.513 103.4 815.101 117.4 916.52 117.4C1017.94 117.4 1098.87 103.4 1176.72 89.8C1255.26 76.1 1336.88 62 1439.66 62V63.5C1338.24 63.5 1257.31 77.5 1179.46 91.1C1100.57 104.8 1019.3 118.9 916.52 118.9Z" fill="#2F80ED" fill-opacity="0.12"/>
<path d="M916.52 112C813.736 112 732.465 97.9 653.584 84.2C575.386 70.6 494.798 56.6 393.38 56.6C291.962 56.6 211.374 70.6 133.176 84.2C91.1745 91.5 47.8072 99 1.70805 104.3L0.000671387 102.9C45.7583 97.6 88.7842 90.2 130.444 82.9C208.983 69.2 290.596 55.1 393.38 55.1C496.164 55.1 577.435 69.2 656.316 82.9C734.513 96.5 815.101 110.5 916.52 110.5C1017.94 110.5 1098.87 96.5 1176.72 82.9C1255.26 69.2 1336.88 55.1 1439.66 55.1V56.6C1338.24 56.6 1257.31 70.6 1179.46 84.2C1100.57 97.9 1019.3 112 916.52 112Z" fill="#2F80ED" fill-opacity="0.12"/>
<path d="M916.518 105.1C813.734 105.1 732.463 91.0002 653.582 77.3002C575.385 63.7002 494.797 49.7002 393.379 49.7002C291.96 49.7002 211.031 63.7002 133.175 77.3002C91.1732 84.6002 48.1473 92.1002 2.0482 97.4002L0.34082 96.0002C46.0985 90.7002 89.1243 83.3002 130.784 76.0002C209.324 62.3002 290.936 48.2002 393.72 48.2002C496.504 48.2002 577.775 62.3002 656.656 76.0002C734.854 89.6002 815.442 103.6 916.86 103.6C1018.28 103.6 1099.21 89.6002 1177.06 76.0002C1255.6 62.3002 1337.22 48.2002 1440 48.2002V49.7002C1338.58 49.7002 1257.65 63.7002 1179.8 77.3002C1100.57 91.0002 1019.3 105.1 916.518 105.1Z" fill="#2F80ED" fill-opacity="0.12"/>
<path d="M916.518 98.1998C813.734 98.1998 732.463 84.0998 653.582 70.3998C575.385 56.7998 494.797 42.7998 393.379 42.7998C291.96 42.7998 211.031 56.7998 133.175 70.3998C91.1732 77.6998 48.1473 85.1998 2.0482 90.4998L0.34082 89.0998C46.0985 83.7998 89.1243 76.3998 130.784 69.0998C209.324 55.3998 290.936 41.2998 393.72 41.2998C496.504 41.2998 577.775 55.3998 656.656 69.0998C734.854 82.6998 815.442 96.6998 916.86 96.6998C1018.28 96.6998 1099.21 82.6998 1177.06 69.0998C1255.6 55.3998 1337.22 41.2998 1440 41.2998V42.7998C1338.58 42.7998 1257.65 56.7998 1179.8 70.3998C1100.57 83.9998 1019.3 98.1998 916.518 98.1998Z" fill="#2F80ED" fill-opacity="0.12"/>
<path d="M916.518 91.3C813.734 91.3 732.463 77.2 653.582 63.5C575.385 50 494.797 36 393.379 36C291.96 36 211.031 50 133.175 63.6C91.1732 70.9 48.1473 78.4 2.0482 83.7L0.34082 82.3C46.0985 77 89.1243 69.6 130.784 62.3C209.324 48.6 290.936 34.5 393.72 34.5C496.504 34.5 577.775 48.6 656.656 62.3C734.854 75.9 815.442 89.9 916.86 89.9C1018.28 89.9 1099.21 75.9 1177.06 62.3C1255.6 48.6 1337.22 34.5 1440 34.5V36C1338.58 36 1257.65 50 1179.8 63.6C1100.57 77.2 1019.3 91.3 916.518 91.3Z" fill="#2F80ED" fill-opacity="0.12"/>
<path d="M916.518 84.5001C813.734 84.5001 732.463 70.4001 653.582 56.7001C575.385 43.1001 494.797 29.1001 393.379 29.1001C291.96 29.1001 211.372 43.1001 133.175 56.7001C91.1732 64.0001 48.1473 71.5001 2.0482 76.8001L0.34082 75.4001C46.0985 70.1001 89.1243 62.7001 130.784 55.4001C209.324 41.7001 290.936 27.6001 393.72 27.6001C496.504 27.6001 577.775 41.7001 656.656 55.4001C734.854 69.0001 815.442 83.0001 916.86 83.0001C1018.28 83.0001 1099.21 69.0001 1177.06 55.4001C1255.6 41.7001 1337.22 27.6001 1440 27.6001V29.1001C1338.58 29.1001 1257.65 43.1001 1179.8 56.7001C1100.57 70.4001 1019.3 84.5001 916.518 84.5001Z" fill="#2F80ED" fill-opacity="0.12"/>
<path d="M916.518 77.6002C813.734 77.6002 732.463 63.5002 653.582 49.8002C575.385 36.2002 494.797 22.2002 393.379 22.2002C291.96 22.2002 211.031 36.2002 133.175 49.8002C91.1732 57.1002 48.1473 64.6002 2.0482 69.9002L0.34082 68.5002C46.0985 63.2002 89.1243 55.8002 130.784 48.5002C209.324 34.8002 290.936 20.7002 393.72 20.7002C496.504 20.7002 577.775 34.8002 656.656 48.5002C734.854 62.1002 815.442 76.1002 916.86 76.1002C1018.28 76.1002 1099.21 62.1002 1177.06 48.5002C1255.6 34.8002 1337.22 20.7002 1440 20.7002V22.2002C1338.58 22.2002 1257.65 36.2002 1179.8 49.8002C1100.57 63.5002 1019.3 77.6002 916.518 77.6002Z" fill="#2F80ED" fill-opacity="0.12"/>
<path d="M916.518 70.6998C813.734 70.6998 732.463 56.5998 653.582 42.8998C575.385 29.2998 494.797 15.2998 393.379 15.2998C291.96 15.2998 211.372 29.2998 133.175 42.8998C91.1732 50.1998 48.1473 57.6998 2.0482 62.9998L0.34082 61.5998C46.0985 56.2998 89.1243 48.8998 130.784 41.5998C209.324 27.8998 290.936 13.7998 393.72 13.7998C496.504 13.7998 577.775 27.8998 656.656 41.5998C734.854 55.1998 815.442 69.1998 916.86 69.1998C1018.28 69.1998 1099.21 55.1998 1177.06 41.5998C1255.6 27.8998 1337.22 13.7998 1440 13.7998V15.2998C1338.58 15.2998 1257.65 29.2998 1179.8 42.8998C1100.57 56.5998 1019.3 70.6998 916.518 70.6998Z" fill="#2F80ED" fill-opacity="0.12"/>
<path d="M916.52 63.8C813.736 63.8 732.465 49.7 653.584 36C575.386 22.4 494.798 8.40002 393.38 8.40002C291.962 8.40002 211.032 22.4 133.176 36C91.1745 43.3 47.8072 50.8 1.70805 56.1L0.000671387 54.7C45.7583 49.4 88.7842 42 130.444 34.7C208.983 21 290.596 6.90002 393.38 6.90002C496.164 6.90002 577.435 21 656.316 34.7C734.513 48.3 815.101 62.3 916.52 62.3C1017.94 62.3 1098.87 48.3 1176.72 34.7C1255.26 21 1336.88 6.90002 1439.66 6.90002V8.40002C1338.24 8.40002 1257.31 22.4 1179.46 36C1100.57 49.7 1019.3 63.8 916.52 63.8Z" fill="#2F80ED" fill-opacity="0.12"/>
<path d="M916.52 56.9C813.736 56.9 732.465 42.8 653.584 29.1C575.386 15.5 494.798 1.5 393.38 1.5C291.962 1.5 211.374 15.5 133.176 29.1C91.1745 36.4 47.8072 43.9 1.70805 49.2L0.000671387 47.8C45.7583 42.5 88.7842 35.1 130.444 27.8C208.983 14.1 290.596 0 393.38 0C496.164 0 577.435 14.1 656.316 27.8C734.513 41.4 815.101 55.4 916.52 55.4C1017.94 55.4 1098.87 41.4 1176.72 27.8C1255.26 14.1 1336.88 0 1439.66 0V1.5C1338.24 1.5 1257.31 15.5 1179.46 29.1C1100.57 42.8 1019.3 56.9 916.52 56.9Z" fill="#2F80ED" fill-opacity="0.12"/>
<path d="M916.52 230.6C813.736 230.6 732.465 216.5 653.584 202.8C575.386 189.2 494.798 175.2 393.38 175.2C291.962 175.2 211.374 189.2 133.176 202.8C91.1745 210.1 47.8072 217.6 1.70805 222.9L0.000671387 221.5C45.7583 216.2 88.7842 208.8 130.444 201.5C208.983 187.8 290.596 173.7 393.38 173.7C496.164 173.7 577.435 187.8 656.316 201.5C734.513 215.1 815.101 229.1 916.52 229.1C1017.94 229.1 1098.87 215.1 1176.72 201.5C1255.26 187.8 1336.88 173.7 1439.66 173.7V175.2C1338.24 175.2 1257.31 189.2 1179.46 202.8C1100.57 216.5 1019.3 230.6 916.52 230.6Z" fill="#2F80ED" fill-opacity="0.12"/>
<path d="M916.52 223.7C813.736 223.7 732.465 209.6 653.584 195.9C575.386 182.3 494.798 168.3 393.38 168.3C291.962 168.3 211.374 182.3 133.176 195.9C91.1745 203.2 47.8072 210.7 1.70805 216L0.000671387 214.6C45.7583 209.3 88.7842 201.9 130.444 194.6C208.983 180.9 290.596 166.8 393.38 166.8C496.164 166.8 577.435 180.9 656.316 194.6C734.513 208.2 815.101 222.2 916.52 222.2C1017.94 222.2 1098.87 208.2 1176.72 194.6C1255.26 180.9 1336.88 166.8 1439.66 166.8V168.3C1338.24 168.3 1257.31 182.3 1179.46 195.9C1100.57 209.5 1019.3 223.7 916.52 223.7Z" fill="#2F80ED" fill-opacity="0.12"/>
<path d="M916.518 216.8C813.734 216.8 732.463 202.7 653.582 189C575.385 175.4 494.797 161.4 393.379 161.4C291.96 161.4 211.372 175.4 133.175 189C91.1732 196.3 48.1473 203.8 2.0482 209.1L0.34082 207.7C46.0985 202.4 89.1243 195 130.784 187.7C209.324 174 290.936 159.9 393.72 159.9C496.504 159.9 577.775 174 656.656 187.7C734.854 201.3 815.442 215.3 916.86 215.3C1018.28 215.3 1099.21 201.3 1177.06 187.7C1255.6 174 1337.22 159.9 1440 159.9V161.4C1338.58 161.4 1257.65 175.4 1179.8 189C1100.57 202.7 1019.3 216.8 916.518 216.8Z" fill="#2F80ED" fill-opacity="0.12"/>
<path d="M916.52 209.9C813.736 209.9 732.465 195.8 653.584 182.1C575.386 168.5 494.798 154.5 393.38 154.5C291.962 154.5 211.374 168.5 133.176 182.1C91.1745 189.4 47.8072 196.9 1.70805 202.2L0.000671387 200.8C45.7583 195.5 88.7842 188.1 130.444 180.8C208.983 167.1 290.596 153 393.38 153C496.164 153 577.435 167.1 656.316 180.8C734.513 194.4 815.101 208.4 916.52 208.4C1017.94 208.4 1098.87 194.4 1176.72 180.8C1255.26 167.1 1336.88 153 1439.66 153V154.5C1338.24 154.5 1257.31 168.5 1179.46 182.1C1100.57 195.8 1019.3 209.9 916.52 209.9Z" fill="#2F80ED" fill-opacity="0.12"/>
<path d="M916.52 203C813.736 203 732.465 188.9 653.584 175.2C575.386 161.6 494.798 147.6 393.38 147.6C291.962 147.6 211.374 161.6 133.176 175.2C91.1745 182.5 47.8072 190 1.70805 195.3L0.000671387 193.9C45.7583 188.6 88.7842 181.2 130.444 173.9C208.983 160.2 290.596 146.1 393.38 146.1C496.164 146.1 577.435 160.2 656.316 173.9C734.513 187.5 815.101 201.5 916.52 201.5C1017.94 201.5 1098.87 187.5 1176.72 173.9C1255.26 160.2 1336.88 146.1 1439.66 146.1V147.6C1338.24 147.6 1257.31 161.6 1179.46 175.2C1100.57 188.9 1019.3 203 916.52 203Z" fill="#2F80ED" fill-opacity="0.12"/>
<path d="M916.518 196.1C813.734 196.1 732.463 182 653.582 168.3C575.385 154.7 494.797 140.7 393.379 140.7C291.96 140.7 211.031 154.7 133.175 168.3C91.1732 175.6 48.1473 183.1 2.0482 188.4L0.34082 187C46.0985 181.7 89.1243 174.3 130.784 167C209.324 153.3 290.936 139.2 393.72 139.2C496.504 139.2 577.775 153.3 656.656 167C734.854 180.6 815.442 194.6 916.86 194.6C1018.28 194.6 1099.21 180.6 1177.06 167C1255.6 153.3 1337.22 139.2 1440 139.2V140.7C1338.58 140.7 1257.65 154.7 1179.8 168.3C1100.57 182 1019.3 196.1 916.518 196.1Z" fill="#2F80ED" fill-opacity="0.12"/>
<path d="M916.518 189.2C813.734 189.2 732.463 175.1 653.582 161.4C575.385 147.8 494.797 133.8 393.379 133.8C291.96 133.8 211.031 147.8 133.175 161.4C91.1732 168.7 48.1473 176.2 2.0482 181.5L0.34082 180.1C46.0985 174.8 89.1243 167.4 130.784 160.1C209.324 146.4 290.936 132.3 393.72 132.3C496.504 132.3 577.775 146.4 656.656 160.1C734.854 173.7 815.442 187.7 916.86 187.7C1018.28 187.7 1099.21 173.7 1177.06 160.1C1255.6 146.4 1337.22 132.3 1440 132.3V133.8C1338.58 133.8 1257.65 147.8 1179.8 161.4C1100.57 175 1019.3 189.2 916.518 189.2Z" fill="#2F80ED" fill-opacity="0.12"/>
<path d="M916.518 182.3C813.734 182.3 732.463 168.2 653.582 154.5C575.385 141 494.797 127 393.379 127C291.96 127 211.031 141 133.175 154.6C91.1732 161.9 48.1473 169.4 2.0482 174.7L0.34082 173.3C46.0985 168 89.1243 160.6 130.784 153.3C209.324 139.6 290.936 125.5 393.72 125.5C496.504 125.5 577.775 139.6 656.656 153.3C734.854 166.9 815.442 180.9 916.86 180.9C1018.28 180.9 1099.21 166.9 1177.06 153.3C1255.6 139.6 1337.22 125.5 1440 125.5V127C1338.58 127 1257.65 141 1179.8 154.6C1100.57 168.2 1019.3 182.3 916.518 182.3Z" fill="#2F80ED" fill-opacity="0.12"/>
<path d="M916.518 175.5C813.734 175.5 732.463 161.4 653.582 147.7C575.385 134.1 494.797 120.1 393.379 120.1C291.96 120.1 211.372 134.1 133.175 147.7C91.1732 155 48.1473 162.5 2.0482 167.8L0.34082 166.4C46.0985 161.1 89.1243 153.7 130.784 146.4C209.324 132.7 290.936 118.6 393.72 118.6C496.504 118.6 577.775 132.7 656.656 146.4C734.854 160 815.442 174 916.86 174C1018.28 174 1099.21 160 1177.06 146.4C1255.6 132.7 1337.22 118.6 1440 118.6V120.1C1338.58 120.1 1257.65 134.1 1179.8 147.7C1100.57 161.4 1019.3 175.5 916.518 175.5Z" fill="#2F80ED" fill-opacity="0.12"/>
<path d="M916.518 168.6C813.734 168.6 732.463 154.5 653.582 140.8C575.385 127.2 494.797 113.2 393.379 113.2C291.96 113.2 211.031 127.2 133.175 140.8C91.1732 148.1 48.1473 155.6 2.0482 160.9L0.34082 159.5C46.0985 154.2 89.1243 146.8 130.784 139.5C209.324 125.8 290.936 111.7 393.72 111.7C496.504 111.7 577.775 125.8 656.656 139.5C734.854 153.1 815.442 167.1 916.86 167.1C1018.28 167.1 1099.21 153.1 1177.06 139.5C1255.6 125.8 1337.22 111.7 1440 111.7V113.2C1338.58 113.2 1257.65 127.2 1179.8 140.8C1100.57 154.5 1019.3 168.6 916.518 168.6Z" fill="#2F80ED" fill-opacity="0.12"/>
<path d="M916.518 161.7C813.734 161.7 732.463 147.6 653.582 133.9C575.385 120.3 494.797 106.3 393.379 106.3C291.96 106.3 211.372 120.3 133.175 133.9C91.1732 141.2 48.1473 148.7 2.0482 154L0.34082 152.6C46.0985 147.3 89.1243 139.9 130.784 132.6C209.324 118.9 290.936 104.8 393.72 104.8C496.504 104.8 577.775 118.9 656.656 132.6C734.854 146.2 815.442 160.2 916.86 160.2C1018.28 160.2 1099.21 146.2 1177.06 132.6C1255.6 118.9 1337.22 104.8 1440 104.8V106.3C1338.58 106.3 1257.65 120.3 1179.8 133.9C1100.57 147.6 1019.3 161.7 916.518 161.7Z" fill="#2F80ED" fill-opacity="0.12"/>
<path d="M916.52 154.8C813.736 154.8 732.465 140.7 653.584 127C575.386 113.4 494.798 99.4 393.38 99.4C291.962 99.4 211.032 113.4 133.176 127C91.1745 134.3 47.8072 141.8 1.70805 147.1L0.000671387 145.7C45.7583 140.4 88.7842 133 130.444 125.7C208.983 112 290.596 97.9 393.38 97.9C496.164 97.9 577.435 112 656.316 125.7C734.513 139.3 815.101 153.3 916.52 153.3C1017.94 153.3 1098.87 139.3 1176.72 125.7C1255.26 112 1336.88 97.9 1439.66 97.9V99.4C1338.24 99.4 1257.31 113.4 1179.46 127C1100.57 140.7 1019.3 154.8 916.52 154.8Z" fill="#2F80ED" fill-opacity="0.12"/>
<path d="M916.52 147.9C813.736 147.9 732.465 133.8 653.584 120.1C575.386 106.5 494.798 92.5 393.38 92.5C291.962 92.5 211.374 106.5 133.176 120.1C91.1745 127.4 47.8072 134.9 1.70805 140.2L0.000671387 138.8C45.7583 133.5 88.7842 126.1 130.444 118.8C208.983 105.1 290.596 91 393.38 91C496.164 91 577.435 105.1 656.316 118.8C734.513 132.4 815.101 146.4 916.52 146.4C1017.94 146.4 1098.87 132.4 1176.72 118.8C1255.26 105.1 1336.88 91 1439.66 91V92.5C1338.24 92.5 1257.31 106.5 1179.46 120.1C1100.57 133.8 1019.3 147.9 916.52 147.9Z" fill="#2F80ED" fill-opacity="0.12"/>
<path d="M916.52 320.6C813.736 320.6 732.465 306.5 653.584 292.8C575.386 279.2 494.798 265.2 393.38 265.2C291.962 265.2 211.374 279.2 133.176 292.8C91.1745 300.1 47.8072 307.6 1.70805 312.9L0.000671387 311.5C45.7583 306.2 88.7842 298.8 130.444 291.5C208.983 277.8 290.596 263.7 393.38 263.7C496.164 263.7 577.435 277.8 656.316 291.5C734.513 305.1 815.101 319.1 916.52 319.1C1017.94 319.1 1098.87 305.1 1176.72 291.5C1255.26 277.8 1336.88 263.7 1439.66 263.7V265.2C1338.24 265.2 1257.31 279.2 1179.46 292.8C1100.57 306.5 1019.3 320.6 916.52 320.6Z" fill="#2F80ED" fill-opacity="0.12"/>
<path d="M916.52 313.7C813.736 313.7 732.465 299.6 653.584 285.9C575.386 272.3 494.798 258.3 393.38 258.3C291.962 258.3 211.374 272.3 133.176 285.9C91.1745 293.2 47.8072 300.7 1.70805 306L0.000671387 304.6C45.7583 299.3 88.7842 291.9 130.444 284.6C208.983 270.9 290.596 256.8 393.38 256.8C496.164 256.8 577.435 270.9 656.316 284.6C734.513 298.2 815.101 312.2 916.52 312.2C1017.94 312.2 1098.87 298.2 1176.72 284.6C1255.26 270.9 1336.88 256.8 1439.66 256.8V258.3C1338.24 258.3 1257.31 272.3 1179.46 285.9C1100.57 299.5 1019.3 313.7 916.52 313.7Z" fill="#2F80ED" fill-opacity="0.12"/>
<path d="M916.518 306.8C813.734 306.8 732.463 292.7 653.582 279C575.385 265.4 494.797 251.4 393.379 251.4C291.96 251.4 211.372 265.4 133.175 279C91.1732 286.3 48.1473 293.8 2.0482 299.1L0.34082 297.7C46.0985 292.4 89.1243 285 130.784 277.7C209.324 264 290.936 249.9 393.72 249.9C496.504 249.9 577.775 264 656.656 277.7C734.854 291.3 815.442 305.3 916.86 305.3C1018.28 305.3 1099.21 291.3 1177.06 277.7C1255.6 264 1337.22 249.9 1440 249.9V251.4C1338.58 251.4 1257.65 265.4 1179.8 279C1100.57 292.7 1019.3 306.8 916.518 306.8Z" fill="#2F80ED" fill-opacity="0.12"/>
<path d="M916.52 299.9C813.736 299.9 732.465 285.8 653.584 272.1C575.386 258.5 494.798 244.5 393.38 244.5C291.962 244.5 211.374 258.5 133.176 272.1C91.1745 279.4 47.8072 286.9 1.70805 292.2L0.000671387 290.8C45.7583 285.5 88.7842 278.1 130.444 270.8C208.983 257.1 290.596 243 393.38 243C496.164 243 577.435 257.1 656.316 270.8C734.513 284.4 815.101 298.4 916.52 298.4C1017.94 298.4 1098.87 284.4 1176.72 270.8C1255.26 257.1 1336.88 243 1439.66 243V244.5C1338.24 244.5 1257.31 258.5 1179.46 272.1C1100.57 285.8 1019.3 299.9 916.52 299.9Z" fill="#2F80ED" fill-opacity="0.12"/>
<path d="M916.52 293C813.736 293 732.465 278.9 653.584 265.2C575.386 251.6 494.798 237.6 393.38 237.6C291.962 237.6 211.374 251.6 133.176 265.2C91.1745 272.5 47.8072 280 1.70805 285.3L0.000671387 283.9C45.7583 278.6 88.7842 271.2 130.444 263.9C208.983 250.2 290.596 236.1 393.38 236.1C496.164 236.1 577.435 250.2 656.316 263.9C734.513 277.5 815.101 291.5 916.52 291.5C1017.94 291.5 1098.87 277.5 1176.72 263.9C1255.26 250.2 1336.88 236.1 1439.66 236.1V237.6C1338.24 237.6 1257.31 251.6 1179.46 265.2C1100.57 278.9 1019.3 293 916.52 293Z" fill="#2F80ED" fill-opacity="0.12"/>
<path d="M916.518 286.1C813.734 286.1 732.463 272 653.582 258.3C575.385 244.7 494.797 230.7 393.379 230.7C291.96 230.7 211.031 244.7 133.175 258.3C91.1732 265.6 48.1473 273.1 2.0482 278.4L0.34082 277C46.0985 271.7 89.1243 264.3 130.784 257C209.324 243.3 290.936 229.2 393.72 229.2C496.504 229.2 577.775 243.3 656.656 257C734.854 270.6 815.442 284.6 916.86 284.6C1018.28 284.6 1099.21 270.6 1177.06 257C1255.6 243.3 1337.22 229.2 1440 229.2V230.7C1338.58 230.7 1257.65 244.7 1179.8 258.3C1100.57 272 1019.3 286.1 916.518 286.1Z" fill="#2F80ED" fill-opacity="0.12"/>
<path d="M916.518 279.2C813.734 279.2 732.463 265.1 653.582 251.4C575.385 237.8 494.797 223.8 393.379 223.8C291.96 223.8 211.031 237.8 133.175 251.4C91.1732 258.7 48.1473 266.2 2.0482 271.5L0.34082 270.1C46.0985 264.8 89.1243 257.4 130.784 250.1C209.324 236.4 290.936 222.3 393.72 222.3C496.504 222.3 577.775 236.4 656.656 250.1C734.854 263.7 815.442 277.7 916.86 277.7C1018.28 277.7 1099.21 263.7 1177.06 250.1C1255.6 236.4 1337.22 222.3 1440 222.3V223.8C1338.58 223.8 1257.65 237.8 1179.8 251.4C1100.57 265 1019.3 279.2 916.518 279.2Z" fill="#2F80ED" fill-opacity="0.12"/>
<path d="M916.518 272.3C813.734 272.3 732.463 258.2 653.582 244.5C575.385 231 494.797 217 393.379 217C291.96 217 211.031 231 133.175 244.6C91.1732 251.9 48.1473 259.4 2.0482 264.7L0.34082 263.3C46.0985 258 89.1243 250.6 130.784 243.3C209.324 229.6 290.936 215.5 393.72 215.5C496.504 215.5 577.775 229.6 656.656 243.3C734.854 256.9 815.442 270.9 916.86 270.9C1018.28 270.9 1099.21 256.9 1177.06 243.3C1255.6 229.6 1337.22 215.5 1440 215.5V217C1338.58 217 1257.65 231 1179.8 244.6C1100.57 258.2 1019.3 272.3 916.518 272.3Z" fill="#2F80ED" fill-opacity="0.12"/>
<path d="M916.518 265.5C813.734 265.5 732.463 251.4 653.582 237.7C575.385 224.1 494.797 210.1 393.379 210.1C291.96 210.1 211.372 224.1 133.175 237.7C91.1732 245 48.1473 252.5 2.0482 257.8L0.34082 256.4C46.0985 251.1 89.1243 243.7 130.784 236.4C209.324 222.7 290.936 208.6 393.72 208.6C496.504 208.6 577.775 222.7 656.656 236.4C734.854 250 815.442 264 916.86 264C1018.28 264 1099.21 250 1177.06 236.4C1255.6 222.7 1337.22 208.6 1440 208.6V210.1C1338.58 210.1 1257.65 224.1 1179.8 237.7C1100.57 251.4 1019.3 265.5 916.518 265.5Z" fill="#2F80ED" fill-opacity="0.12"/>
<path d="M916.518 258.6C813.734 258.6 732.463 244.5 653.582 230.8C575.385 217.2 494.797 203.2 393.379 203.2C291.96 203.2 211.031 217.2 133.175 230.8C91.1732 238.1 48.1473 245.6 2.0482 250.9L0.34082 249.5C46.0985 244.2 89.1243 236.8 130.784 229.5C209.324 215.8 290.936 201.7 393.72 201.7C496.504 201.7 577.775 215.8 656.656 229.5C734.854 243.1 815.442 257.1 916.86 257.1C1018.28 257.1 1099.21 243.1 1177.06 229.5C1255.6 215.8 1337.22 201.7 1440 201.7V203.2C1338.58 203.2 1257.65 217.2 1179.8 230.8C1100.57 244.5 1019.3 258.6 916.518 258.6Z" fill="#2F80ED" fill-opacity="0.12"/>
<path d="M916.518 251.7C813.734 251.7 732.463 237.6 653.582 223.9C575.385 210.3 494.797 196.3 393.379 196.3C291.96 196.3 211.372 210.3 133.175 223.9C91.1732 231.2 48.1473 238.7 2.0482 244L0.34082 242.6C46.0985 237.3 89.1243 229.9 130.784 222.6C209.324 208.9 290.936 194.8 393.72 194.8C496.504 194.8 577.775 208.9 656.656 222.6C734.854 236.2 815.442 250.2 916.86 250.2C1018.28 250.2 1099.21 236.2 1177.06 222.6C1255.6 208.9 1337.22 194.8 1440 194.8V196.3C1338.58 196.3 1257.65 210.3 1179.8 223.9C1100.57 237.6 1019.3 251.7 916.518 251.7Z" fill="#2F80ED" fill-opacity="0.12"/>
<path d="M916.52 244.8C813.736 244.8 732.465 230.7 653.584 217C575.386 203.4 494.798 189.4 393.38 189.4C291.962 189.4 211.032 203.4 133.176 217C91.1745 224.3 47.8072 231.8 1.70805 237.1L0.000671387 235.7C45.7583 230.4 88.7842 223 130.444 215.7C208.983 202 290.596 187.9 393.38 187.9C496.164 187.9 577.435 202 656.316 215.7C734.513 229.3 815.101 243.3 916.52 243.3C1017.94 243.3 1098.87 229.3 1176.72 215.7C1255.26 202 1336.88 187.9 1439.66 187.9V189.4C1338.24 189.4 1257.31 203.4 1179.46 217C1100.57 230.7 1019.3 244.8 916.52 244.8Z" fill="#2F80ED" fill-opacity="0.12"/>
<path d="M916.52 237.9C813.736 237.9 732.465 223.8 653.584 210.1C575.386 196.5 494.798 182.5 393.38 182.5C291.962 182.5 211.374 196.5 133.176 210.1C91.1745 217.4 47.8072 224.9 1.70805 230.2L0.000671387 228.8C45.7583 223.5 88.7842 216.1 130.444 208.8C208.983 195.1 290.596 181 393.38 181C496.164 181 577.435 195.1 656.316 208.8C734.513 222.4 815.101 236.4 916.52 236.4C1017.94 236.4 1098.87 222.4 1176.72 208.8C1255.26 195.1 1336.88 181 1439.66 181V182.5C1338.24 182.5 1257.31 196.5 1179.46 210.1C1100.57 223.8 1019.3 237.9 916.52 237.9Z" fill="#2F80ED" fill-opacity="0.12"/>
</svg>
