<svg width="634" height="171" viewBox="0 0 634 171" fill="none" xmlns="http://www.w3.org/2000/svg">
<path d="M289 19.3941C302.2 29.5941 317.8 41.5941 323.7 46.1941C329.5 50.6941 344 61.7941 355.8 70.8941C367.7 79.8941 377.1 87.6941 376.9 88.0941C376.6 88.4941 366.3 88.8941 353.9 88.8941H331.4L312.8 75.0941C302.6 67.5941 287.8 56.5941 279.8 50.5941C271.8 44.6941 264.8 39.8941 264.2 39.8941C263.2 39.8941 210.8 78.1941 200.1 86.5941C197.3 88.7941 196.6 88.8941 174.4 88.8941C149.8 88.8941 148.3 88.4941 154.8 84.2941C156.5 83.0941 164.1 77.4941 171.5 71.6941C178.9 65.9941 199.2 50.2941 216.5 36.8941C233.8 23.4941 251.4 9.8941 255.5 6.69411C259.6 3.49411 263.5 0.894104 264 0.894104C264.6 0.894104 275.8 9.19411 289 19.3941Z" fill="#264B44"/>
<path d="M241.7 85.0941L242 103.394L254.3 103.894L266.6 104.394L266.7 117.894V131.394L254.1 131.694L241.5 131.994L241.3 150.694L241 169.394L226.3 169.694L211.5 169.994V127.994V86.0941L225.8 76.5941C233.6 71.2941 240.3 66.9941 240.7 66.8941C241.1 66.8941 241.6 75.0941 241.7 85.0941Z" fill="#264B44"/>
<path d="M315.3 86.0941C316.2 87.2941 316.5 96.8941 316.3 128.494L316 169.394H301.5H287L286.7 119.394C286.6 91.8941 286.7 68.7941 287 68.0941C287.3 67.2941 291.9 69.7941 300.7 75.6941C308 80.5941 314.6 85.2941 315.3 86.0941Z" fill="#DDC746"/>
<path d="M93 79.8941V87.3941H84.5H76L75.7 80.9941C75.3 71.6941 75.1 71.7941 84.7 72.0941L93 72.3941V79.8941Z" fill="#264B44"/>
<path d="M70 82.8941V90.3941L43.6 90.4941L17.2 90.6941L17.1 102.994L17 115.394L40.8 115.694L64.6 115.894L64.3 123.194L64 130.394L40.5 130.894L17 131.394L16.9 149.894L16.8 168.394H8.90001H1.00001L0.700006 122.894C0.600006 97.8941 0.700006 76.7941 1.00001 76.0941C1.30001 75.0941 8.8 74.8941 35.7 75.0941L70 75.3941V82.8941Z" fill="#264B44"/>
<path d="M144.3 101.394C144.4 103.594 144.2 107.394 143.7 109.894C143 114.294 142.9 114.394 138.4 114.994C130.2 116.194 125.1 119.994 121.8 127.394C120.4 130.594 119.9 135.094 119.5 149.894L119 168.394H111H103V133.394L103 98.3941H111H119L118.8 105.094C118.5 112.394 119.6 113.594 121.9 108.994C123.9 105.194 131.1 99.0941 135 97.8941C136.6 97.3941 139.4 97.0941 141 97.1941C143.8 97.3941 144 97.6941 144.3 101.394Z" fill="#264B44"/>
<path d="M178.5 97.8941C185.5 99.4941 195.5 103.994 195.5 105.494C195.5 106.294 194.8 108.094 194 109.394C193.2 110.794 191.8 112.994 191 114.394L189.5 116.794L185 114.394C182.5 113.094 178 111.494 175 110.794C165.5 108.694 158.4 112.294 159.9 118.494C160.6 121.194 164.8 123.594 175 126.894C192.2 132.494 197.5 137.594 197.5 148.494C197.5 156.694 193.5 163.294 186 167.194C179.9 170.294 166.7 170.794 157.8 168.094C151.8 166.194 141.5 160.794 141.5 159.494C141.5 158.694 147.6 149.994 148.6 149.394C149.1 148.994 150.7 149.694 152.1 150.794C159.5 156.594 174.8 158.794 179.9 154.794C183.4 151.994 183.4 147.794 179.8 144.994C178.4 143.794 173.3 141.694 168.6 140.294C148 133.994 142.5 127.594 145.9 113.794C147.2 108.594 148.3 106.694 151.6 103.594C158.2 97.6941 167.9 95.5941 178.5 97.8941Z" fill="#264B44"/>
<path fill-rule="evenodd" clip-rule="evenodd" d="M398.2 116.794C394.9 109.894 388.2 103.594 380.8 100.194C376.5 98.1941 373.2 97.5941 366.6 97.2941C361.9 97.0941 356.7 97.3941 355 97.7941C327 105.694 317.5 137.894 337.1 158.894C351.3 173.994 377.8 173.994 392.1 158.694C399.4 150.894 401 146.394 401 133.394C401 123.394 400.7 121.894 398.2 116.794ZM349.1 148.894C339.1 137.894 342.7 118.894 356 112.694C364.8 108.494 376.4 112.194 382.2 121.094C384.7 124.794 385 126.194 385 133.294C385 139.594 384.5 142.294 382.9 145.394C376.5 157.594 358.7 159.494 349.1 148.894Z" fill="#DDC746"/>
<path d="M449.8 97.9941C451.9 98.5941 455.6 100.994 458.2 103.494C460.8 105.894 463.1 107.894 463.5 107.894C463.8 107.894 465.4 106.494 467.1 104.794C471.4 100.294 477.1 97.6941 484.2 97.0941C493 96.3941 499 98.2941 504.2 103.494C510.9 110.294 511.6 113.994 511.3 143.494L511 168.394H503.1H495.3L495.4 147.794C495.6 123.594 494.9 119.294 489.7 114.794C486.5 111.894 485.7 111.694 480.4 112.094C474.4 112.494 470.9 114.594 468.2 119.394C467.4 120.694 466.8 129.794 466.5 144.894L466 168.394H458H450L449.5 144.894C449.1 124.994 448.7 120.894 447.2 118.194C442.6 109.594 428.5 109.794 422.8 118.594C421.2 120.894 420.9 124.394 420.5 144.894L420 168.394H412H404.1L404 133.394V98.3941H412H420L419.9 103.094C419.9 105.794 420.2 107.894 420.6 107.894C421 107.894 422.3 106.594 423.4 104.994C428.1 98.3941 440 95.2941 449.8 97.9941Z" fill="#DDC746"/>
<path fill-rule="evenodd" clip-rule="evenodd" d="M574.3 110.394C570.8 105.094 565 100.794 558.2 98.4941C548.4 95.1941 534.9 97.2941 527 103.294C521.9 107.194 516.8 114.494 515 120.294C512.7 127.794 513 141.594 515.6 148.594C518.4 155.794 525 162.994 532.4 166.594C537.5 169.194 539 169.394 549.5 169.394C559.6 169.394 561.5 169.094 565.5 166.994C568 165.694 571.4 163.394 573 161.794L576 158.994L580.3 161.894C588.8 167.594 595 169.294 606.5 169.394C615.9 169.394 617.6 169.094 622 166.794C629.1 163.194 632.6 157.894 633.2 149.794C633.5 144.694 633.2 142.694 631.7 139.894C629 135.094 622 130.594 612.3 127.394C602 123.994 596.9 121.494 596.1 119.394C592.5 109.994 605.6 107.094 619.9 113.994C622.1 114.994 624.4 115.894 624.9 115.894C625.5 115.894 627.3 113.594 628.8 110.794C632.2 104.594 631.9 104.094 622.7 100.294C617.1 97.9941 614.4 97.5941 606.5 97.4941C598.6 97.3941 596.3 97.7941 593 99.5941C584.5 104.094 579.8 111.994 581 119.594C582.7 131.394 586.7 134.794 604.6 140.294C618.1 144.394 621.7 148.794 616 154.394C614 156.494 612.6 156.894 607.9 156.894C600.8 156.894 595.4 155.294 589.1 151.494L584.3 148.594L582.4 150.994C581.4 152.294 580.3 154.194 579.9 155.094C579.1 157.794 577.5 157.294 572.9 152.794L568.7 148.694L565.3 151.194C551.7 161.594 532.1 156.694 529.8 142.394L529.2 138.794L555.1 138.994L581 139.194L580.9 134.694C580.6 126.694 577.5 115.194 574.3 110.394ZM529.1 127.994C527.3 125.094 534.6 114.194 540 111.794C545.2 109.394 549.7 109.394 554.4 111.894C559 114.194 561.9 117.594 563.5 122.494C565.6 128.794 565.4 128.894 546.6 128.894C537.3 128.894 529.4 128.494 529.1 127.994Z" fill="#DDC746"/>
<path d="M92.5 133.394V168.994L84.5 168.694L76.5 168.394V133.894C76.5 114.894 76.5 99.0941 76.5 98.5941C76.5 98.1941 80.1 97.8941 84.5 97.8941H92.5L92.5 133.394Z" fill="#264B44"/>
<path d="M316.1 4.1941C316.3 4.8941 316.4 11.1941 316.3 18.1941L316 30.8941L301.5 21.1941C289.2 12.8941 287 10.9941 286.7 8.5941C286 2.9941 286.2 2.8941 301.5 2.8941C312.1 2.8941 315.7 3.1941 316.1 4.1941Z" fill="#DDC746"/>
</svg>
