<svg width="383" height="61" viewBox="0 0 383 61" fill="none" xmlns="http://www.w3.org/2000/svg">
<path d="M128.656 17.408V11.024H103.264V44H110.368V30.944H126.928V24.56H110.368V17.408H128.656ZM136.998 15.776C139.062 15.776 140.742 14.048 140.742 11.936C140.742 9.968 139.062 8.192 136.998 8.192C134.838 8.192 133.158 9.968 133.158 11.936C133.158 14.048 134.838 15.776 136.998 15.776ZM133.446 44H140.454V19.184H133.446V44ZM153.58 23.792V19.184H146.572V44H153.58V32.144C153.58 27.488 156.892 24.512 162.076 24.512V18.608C158.284 18.608 155.212 20.576 153.58 23.792ZM175.431 44.576C181.527 44.576 185.511 41.456 185.511 36.56C185.511 31.136 180.759 29.696 176.487 28.592C173.127 27.68 172.119 27.296 172.119 25.952C172.119 25.088 173.319 24.464 175.047 24.464C177.159 24.464 179.751 25.28 182.007 26.672L184.839 21.68C182.103 19.856 178.599 18.608 175.047 18.608C169.191 18.608 165.303 21.968 165.351 26.672C165.399 31.568 169.335 32.96 174.423 34.208C176.967 34.88 178.791 35.36 178.791 36.896C178.791 38 177.447 38.768 175.575 38.768C172.263 38.768 169.479 37.568 167.271 35.984L164.247 40.832C167.223 43.232 171.447 44.576 175.431 44.576ZM203.269 37.856C202.789 38.336 201.829 38.672 200.869 38.672C199.573 38.672 198.517 37.52 198.517 35.888V24.848H203.893V19.184H198.517V12.368H191.797V19.184H188.389V24.848H191.797V36.992C191.797 41.456 194.869 44.576 199.237 44.576C201.253 44.576 203.509 43.712 204.949 42.416L203.269 37.856Z" fill="#11B4FE"/>
<path d="M245.016 11.024V23.984H229.992V11.024H222.936V44H229.992V30.368H245.016V44H252.072V11.024H245.016ZM270.608 44.576C277.952 44.576 284.096 38.624 284.096 31.568C284.096 24.512 277.952 18.608 270.608 18.608C263.216 18.608 257.024 24.512 257.024 31.568C257.024 38.624 263.216 44.576 270.608 44.576ZM270.608 38.672C266.864 38.672 263.744 35.408 263.744 31.568C263.744 27.728 266.864 24.512 270.608 24.512C274.304 24.512 277.424 27.728 277.424 31.568C277.424 35.408 274.304 38.672 270.608 38.672ZM318.358 18.608C314.662 18.608 311.59 20.384 310.294 23.12C308.758 20.336 305.83 18.608 302.422 18.608C299.35 18.608 296.902 20.096 295.702 22.448V19.184H288.694V44H295.702V29.024C295.702 26.384 297.67 24.512 300.502 24.512C303.046 24.512 304.87 26.528 304.87 29.408V44.048H311.59V29.024C311.59 26.384 313.606 24.512 316.39 24.512C318.982 24.512 320.806 26.528 320.806 29.408V44.048H327.526V28.208C327.526 22.592 323.542 18.608 318.358 18.608ZM345.128 38.384C342.2 38.384 340.04 36.56 339.224 33.872H357.128C357.128 24.512 352.568 18.608 344.792 18.608C337.544 18.608 332.024 24.032 332.024 31.52C332.024 39.152 337.784 44.576 345.176 44.576C348.824 44.576 353.096 43.04 355.304 40.736L350.84 36.176C349.496 37.472 347.096 38.384 345.128 38.384ZM345.08 24.8C347.912 24.8 349.736 26.384 350.408 28.832H339.32C340.232 26.336 342.44 24.8 345.08 24.8ZM371.181 44.576C377.277 44.576 381.261 41.456 381.261 36.56C381.261 31.136 376.509 29.696 372.237 28.592C368.877 27.68 367.869 27.296 367.869 25.952C367.869 25.088 369.069 24.464 370.797 24.464C372.909 24.464 375.501 25.28 377.757 26.672L380.589 21.68C377.853 19.856 374.349 18.608 370.797 18.608C364.941 18.608 361.053 21.968 361.101 26.672C361.149 31.568 365.085 32.96 370.173 34.208C372.717 34.88 374.541 35.36 374.541 36.896C374.541 38 373.197 38.768 371.325 38.768C368.013 38.768 365.229 37.568 363.021 35.984L359.997 40.832C362.973 43.232 367.197 44.576 371.181 44.576Z" fill="#F8634B"/>
<g clip-path="url(#clip0)">
<path d="M48.7994 6.5622C53.4844 10.1825 59.0222 14.4411 61.1153 16.0743C63.1735 17.6713 68.3211 21.6107 72.5126 24.8409C75.1372 26.7135 77.6377 28.7541 79.9987 30.9498C77.2863 31.2166 74.5598 31.3116 71.8355 31.2341L63.8493 31.2341L57.2469 26.3359C53.6265 23.6743 48.373 19.7657 45.5344 17.6404C43.7701 16.2602 41.921 14.992 39.998 13.8431C39.6427 13.8431 21.0449 27.4368 17.2462 30.4189C16.2526 31.1992 16.0046 31.2354 8.12832 31.2354C-0.607414 31.2341 -1.13974 31.092 1.16789 29.6009C1.77128 29.1745 4.4691 27.1874 7.09586 25.1291C9.72127 23.1058 16.9271 17.5331 23.0629 12.7771C29.1987 8.02106 35.4498 3.19394 36.906 2.05823C37.8391 1.27152 38.85 0.581884 39.9229 3.8147e-06C40.1388 3.8147e-06 44.1144 2.94186 48.7994 6.5622Z" fill="#11B4FE"/>
<path d="M32.0104 29.8852L32.1164 36.3803L36.4822 36.5573L40.8481 36.7343L40.8829 41.5266V46.3188L36.4112 46.4248L31.9394 46.5307L31.8683 53.168L31.7624 59.8052L26.5451 59.9138L21.2916 60.0198L21.2916 30.2405L26.3667 26.8682C29.1356 24.991 31.513 23.4611 31.6551 23.4249C31.954 25.5646 32.0729 27.7256 32.0104 29.8852Z" fill="#F8634B"/>
<path d="M58.1346 30.2405C58.4537 30.6669 58.5609 34.074 58.4899 45.2904L58.3826 59.8066H48.0888L47.9829 42.0602C47.948 32.3001 47.9829 24.1007 48.0888 23.8526C48.1947 23.5684 49.8319 24.456 52.9508 26.5505C55.5427 28.2882 57.8919 29.9563 58.1346 30.2405Z" fill="#F8634B"/>
<path d="M58.4188 1.17057C58.4899 1.41863 58.5248 3.65519 58.4899 6.13981L58.3826 10.6478L53.2364 7.20446C48.8705 4.25858 48.0901 3.58412 47.9829 2.7367C47.7348 0.745512 47.8059 0.709309 53.2364 0.709309C56.9988 0.709309 58.2767 0.816578 58.4188 1.17057Z" fill="#11B4FE"/>
</g>
<defs>
<clipPath id="clip0">
<rect width="80" height="60.0198" fill="white"/>
</clipPath>
</defs>
</svg>
