<svg width="1440" height="140" viewBox="0 0 1440 140" fill="none" xmlns="http://www.w3.org/2000/svg">
<path d="M916.52 139.6C813.736 139.6 732.465 125.5 653.584 111.8C575.386 98.1999 494.798 84.2 393.38 84.2C291.962 84.2 211.374 98.1999 133.176 111.8C91.1745 119.1 47.8072 126.6 1.70805 131.9L0.000671387 130.5C45.7583 125.2 88.7842 117.8 130.444 110.5C208.983 96.8 290.596 82.7 393.38 82.7C496.164 82.7 577.435 96.8 656.316 110.5C734.513 124.1 815.101 138.1 916.52 138.1C1017.94 138.1 1098.87 124.1 1176.72 110.5C1255.26 96.8 1336.88 82.7 1439.66 82.7V84.2C1338.24 84.2 1257.31 98.1999 1179.46 111.8C1100.57 125.5 1019.3 139.6 916.52 139.6Z" fill="#2F80ED" fill-opacity="0.12"/>
<path d="M916.52 132.7C813.736 132.7 732.465 118.6 653.584 104.9C575.386 91.3 494.798 77.3 393.38 77.3C291.962 77.3 211.374 91.3 133.176 104.9C91.1745 112.2 47.8072 119.7 1.70805 125L0.000671387 123.6C45.7583 118.3 88.7842 110.9 130.444 103.6C208.983 89.9 290.596 75.8 393.38 75.8C496.164 75.8 577.435 89.9 656.316 103.6C734.513 117.2 815.101 131.2 916.52 131.2C1017.94 131.2 1098.87 117.2 1176.72 103.6C1255.26 89.9 1336.88 75.8 1439.66 75.8V77.3C1338.24 77.3 1257.31 91.3 1179.46 104.9C1100.57 118.5 1019.3 132.7 916.52 132.7Z" fill="#2F80ED" fill-opacity="0.12"/>
<path d="M916.518 125.8C813.734 125.8 732.463 111.7 653.582 97.9999C575.385 84.3999 494.797 70.3999 393.379 70.3999C291.96 70.3999 211.372 84.3999 133.175 97.9999C91.1732 105.3 48.1473 112.8 2.0482 118.1L0.34082 116.7C46.0985 111.4 89.1243 104 130.784 96.6999C209.324 82.9999 290.936 68.8999 393.72 68.8999C496.504 68.8999 577.775 82.9999 656.656 96.6999C734.854 110.3 815.442 124.3 916.86 124.3C1018.28 124.3 1099.21 110.3 1177.06 96.6999C1255.6 82.9999 1337.22 68.8999 1440 68.8999V70.3999C1338.58 70.3999 1257.65 84.3999 1179.8 97.9999C1100.57 111.7 1019.3 125.8 916.518 125.8Z" fill="#2F80ED" fill-opacity="0.12"/>
<path d="M916.52 118.9C813.736 118.9 732.465 104.8 653.584 91.1C575.386 77.5 494.798 63.5 393.38 63.5C291.962 63.5 211.374 77.5 133.176 91.1C91.1745 98.4 47.8072 105.9 1.70805 111.2L0.000671387 109.8C45.7583 104.5 88.7842 97.1 130.444 89.8C208.983 76.1 290.596 62 393.38 62C496.164 62 577.435 76.1 656.316 89.8C734.513 103.4 815.101 117.4 916.52 117.4C1017.94 117.4 1098.87 103.4 1176.72 89.8C1255.26 76.1 1336.88 62 1439.66 62V63.5C1338.24 63.5 1257.31 77.5 1179.46 91.1C1100.57 104.8 1019.3 118.9 916.52 118.9Z" fill="#2F80ED" fill-opacity="0.12"/>
<path d="M916.52 112C813.736 112 732.465 97.9 653.584 84.2C575.386 70.6 494.798 56.6 393.38 56.6C291.962 56.6 211.374 70.6 133.176 84.2C91.1745 91.5 47.8072 99 1.70805 104.3L0.000671387 102.9C45.7583 97.6 88.7842 90.2 130.444 82.9C208.983 69.2 290.596 55.1 393.38 55.1C496.164 55.1 577.435 69.2 656.316 82.9C734.513 96.5 815.101 110.5 916.52 110.5C1017.94 110.5 1098.87 96.5 1176.72 82.9C1255.26 69.2 1336.88 55.1 1439.66 55.1V56.6C1338.24 56.6 1257.31 70.6 1179.46 84.2C1100.57 97.9 1019.3 112 916.52 112Z" fill="#2F80ED" fill-opacity="0.12"/>
<path d="M916.518 105.1C813.734 105.1 732.463 91.0002 653.582 77.3002C575.385 63.7002 494.797 49.7002 393.379 49.7002C291.96 49.7002 211.031 63.7002 133.175 77.3002C91.1732 84.6002 48.1473 92.1002 2.0482 97.4002L0.34082 96.0002C46.0985 90.7002 89.1243 83.3002 130.784 76.0002C209.324 62.3002 290.936 48.2002 393.72 48.2002C496.504 48.2002 577.775 62.3002 656.656 76.0002C734.854 89.6002 815.442 103.6 916.86 103.6C1018.28 103.6 1099.21 89.6002 1177.06 76.0002C1255.6 62.3002 1337.22 48.2002 1440 48.2002V49.7002C1338.58 49.7002 1257.65 63.7002 1179.8 77.3002C1100.57 91.0002 1019.3 105.1 916.518 105.1Z" fill="#2F80ED" fill-opacity="0.12"/>
<path d="M916.518 98.1998C813.734 98.1998 732.463 84.0998 653.582 70.3998C575.385 56.7998 494.797 42.7998 393.379 42.7998C291.96 42.7998 211.031 56.7998 133.175 70.3998C91.1732 77.6998 48.1473 85.1998 2.0482 90.4998L0.34082 89.0998C46.0985 83.7998 89.1243 76.3998 130.784 69.0998C209.324 55.3998 290.936 41.2998 393.72 41.2998C496.504 41.2998 577.775 55.3998 656.656 69.0998C734.854 82.6998 815.442 96.6998 916.86 96.6998C1018.28 96.6998 1099.21 82.6998 1177.06 69.0998C1255.6 55.3998 1337.22 41.2998 1440 41.2998V42.7998C1338.58 42.7998 1257.65 56.7998 1179.8 70.3998C1100.57 83.9998 1019.3 98.1998 916.518 98.1998Z" fill="#2F80ED" fill-opacity="0.12"/>
<path d="M916.518 91.3C813.734 91.3 732.463 77.2 653.582 63.5C575.385 50 494.797 36 393.379 36C291.96 36 211.031 50 133.175 63.6C91.1732 70.9 48.1473 78.4 2.0482 83.7L0.34082 82.3C46.0985 77 89.1243 69.6 130.784 62.3C209.324 48.6 290.936 34.5 393.72 34.5C496.504 34.5 577.775 48.6 656.656 62.3C734.854 75.9 815.442 89.9 916.86 89.9C1018.28 89.9 1099.21 75.9 1177.06 62.3C1255.6 48.6 1337.22 34.5 1440 34.5V36C1338.58 36 1257.65 50 1179.8 63.6C1100.57 77.2 1019.3 91.3 916.518 91.3Z" fill="#2F80ED" fill-opacity="0.12"/>
<path d="M916.518 84.5001C813.734 84.5001 732.463 70.4001 653.582 56.7001C575.385 43.1001 494.797 29.1001 393.379 29.1001C291.96 29.1001 211.372 43.1001 133.175 56.7001C91.1732 64.0001 48.1473 71.5001 2.0482 76.8001L0.34082 75.4001C46.0985 70.1001 89.1243 62.7001 130.784 55.4001C209.324 41.7001 290.936 27.6001 393.72 27.6001C496.504 27.6001 577.775 41.7001 656.656 55.4001C734.854 69.0001 815.442 83.0001 916.86 83.0001C1018.28 83.0001 1099.21 69.0001 1177.06 55.4001C1255.6 41.7001 1337.22 27.6001 1440 27.6001V29.1001C1338.58 29.1001 1257.65 43.1001 1179.8 56.7001C1100.57 70.4001 1019.3 84.5001 916.518 84.5001Z" fill="#2F80ED" fill-opacity="0.12"/>
<path d="M916.518 77.6002C813.734 77.6002 732.463 63.5002 653.582 49.8002C575.385 36.2002 494.797 22.2002 393.379 22.2002C291.96 22.2002 211.031 36.2002 133.175 49.8002C91.1732 57.1002 48.1473 64.6002 2.0482 69.9002L0.34082 68.5002C46.0985 63.2002 89.1243 55.8002 130.784 48.5002C209.324 34.8002 290.936 20.7002 393.72 20.7002C496.504 20.7002 577.775 34.8002 656.656 48.5002C734.854 62.1002 815.442 76.1002 916.86 76.1002C1018.28 76.1002 1099.21 62.1002 1177.06 48.5002C1255.6 34.8002 1337.22 20.7002 1440 20.7002V22.2002C1338.58 22.2002 1257.65 36.2002 1179.8 49.8002C1100.57 63.5002 1019.3 77.6002 916.518 77.6002Z" fill="#2F80ED" fill-opacity="0.12"/>
<path d="M916.518 70.6998C813.734 70.6998 732.463 56.5998 653.582 42.8998C575.385 29.2998 494.797 15.2998 393.379 15.2998C291.96 15.2998 211.372 29.2998 133.175 42.8998C91.1732 50.1998 48.1473 57.6998 2.0482 62.9998L0.34082 61.5998C46.0985 56.2998 89.1243 48.8998 130.784 41.5998C209.324 27.8998 290.936 13.7998 393.72 13.7998C496.504 13.7998 577.775 27.8998 656.656 41.5998C734.854 55.1998 815.442 69.1998 916.86 69.1998C1018.28 69.1998 1099.21 55.1998 1177.06 41.5998C1255.6 27.8998 1337.22 13.7998 1440 13.7998V15.2998C1338.58 15.2998 1257.65 29.2998 1179.8 42.8998C1100.57 56.5998 1019.3 70.6998 916.518 70.6998Z" fill="#2F80ED" fill-opacity="0.12"/>
<path d="M916.52 63.8C813.736 63.8 732.465 49.7 653.584 36C575.386 22.4 494.798 8.40002 393.38 8.40002C291.962 8.40002 211.032 22.4 133.176 36C91.1745 43.3 47.8072 50.8 1.70805 56.1L0.000671387 54.7C45.7583 49.4 88.7842 42 130.444 34.7C208.983 21 290.596 6.90002 393.38 6.90002C496.164 6.90002 577.435 21 656.316 34.7C734.513 48.3 815.101 62.3 916.52 62.3C1017.94 62.3 1098.87 48.3 1176.72 34.7C1255.26 21 1336.88 6.90002 1439.66 6.90002V8.40002C1338.24 8.40002 1257.31 22.4 1179.46 36C1100.57 49.7 1019.3 63.8 916.52 63.8Z" fill="#2F80ED" fill-opacity="0.12"/>
<path d="M916.52 56.9C813.736 56.9 732.465 42.8 653.584 29.1C575.386 15.5 494.798 1.5 393.38 1.5C291.962 1.5 211.374 15.5 133.176 29.1C91.1745 36.4 47.8072 43.9 1.70805 49.2L0.000671387 47.8C45.7583 42.5 88.7842 35.1 130.444 27.8C208.983 14.1 290.596 0 393.38 0C496.164 0 577.435 14.1 656.316 27.8C734.513 41.4 815.101 55.4 916.52 55.4C1017.94 55.4 1098.87 41.4 1176.72 27.8C1255.26 14.1 1336.88 0 1439.66 0V1.5C1338.24 1.5 1257.31 15.5 1179.46 29.1C1100.57 42.8 1019.3 56.9 916.52 56.9Z" fill="#2F80ED" fill-opacity="0.12"/>
</svg>
