<svg width="80" height="61" viewBox="0 0 80 61" fill="none" xmlns="http://www.w3.org/2000/svg">
<path d="M48.7994 6.5622C53.4844 10.1825 59.0222 14.4411 61.1153 16.0743C63.1735 17.6713 68.3211 21.6107 72.5126 24.8409C75.1372 26.7135 77.6377 28.7541 79.9987 30.9498C77.2863 31.2166 74.5598 31.3116 71.8355 31.2341L63.8493 31.2341L57.2469 26.3359C53.6265 23.6743 48.373 19.7657 45.5344 17.6404C43.7701 16.2602 41.921 14.992 39.998 13.8431C39.6427 13.8431 21.0449 27.4368 17.2462 30.4189C16.2526 31.1992 16.0046 31.2354 8.12832 31.2354C-0.607414 31.2341 -1.13974 31.092 1.16789 29.6009C1.77128 29.1745 4.4691 27.1874 7.09586 25.1291C9.72127 23.1058 16.9271 17.5331 23.0629 12.7771C29.1987 8.02106 35.4498 3.19394 36.906 2.05823C37.8391 1.27152 38.85 0.581884 39.9229 3.8147e-06C40.1388 3.8147e-06 44.1144 2.94186 48.7994 6.5622Z" fill="#11B4FE"/>
<path d="M32.0104 29.8852L32.1164 36.3803L36.4822 36.5573L40.8481 36.7343L40.8829 41.5266V46.3188L36.4112 46.4248L31.9394 46.5307L31.8683 53.168L31.7624 59.8052L26.5451 59.9138L21.2916 60.0198L21.2916 30.2405L26.3667 26.8682C29.1356 24.991 31.513 23.4611 31.6551 23.4249C31.954 25.5646 32.0729 27.7256 32.0104 29.8852Z" fill="#F8634B"/>
<path d="M58.1346 30.2405C58.4537 30.6669 58.5609 34.074 58.4899 45.2904L58.3826 59.8066H48.0888L47.9829 42.0602C47.948 32.3001 47.9829 24.1007 48.0888 23.8526C48.1947 23.5684 49.8319 24.456 52.9508 26.5505C55.5427 28.2882 57.8919 29.9563 58.1346 30.2405Z" fill="#F8634B"/>
<path d="M58.4188 1.17057C58.4899 1.41863 58.5248 3.65519 58.4899 6.13981L58.3826 10.6478L53.2364 7.20446C48.8705 4.25858 48.0901 3.58412 47.9829 2.7367C47.7348 0.745512 47.8059 0.709309 53.2364 0.709309C56.9988 0.709309 58.2767 0.816578 58.4188 1.17057Z" fill="#11B4FE"/>
</svg>
